<?xml version="1.0" encoding="utf-8"?>
<!-- Generator: Adobe Illustrator 16.0.0, SVG Export Plug-In . SVG Version: 6.00 Build 0)  -->
<!DOCTYPE svg PUBLIC "-//W3C//DTD SVG 1.1//EN" "http://www.w3.org/Graphics/SVG/1.1/DTD/svg11.dtd">
<svg version="1.1" id="clavier_xA0_Image_1_" xmlns="http://www.w3.org/2000/svg" xmlns:xlink="http://www.w3.org/1999/xlink"
	 x="0px" y="0px" width="440.174px" height="440px" viewBox="0 0 440.174 440" enable-background="new 0 0 440.174 440"
	 xml:space="preserve">
<path opacity="0.8" d="M3,225.5C3,335.129,70.872,424,180.5,424S371,335.129,371,225.5C371,115.872,290.128,27,180.5,27
	S3,115.872,3,225.5z"/>
<path fill="none" stroke="#FFFFFF" stroke-width="30" stroke-miterlimit="10" d="M277.054,347.838
	C251.999,366.174,221.101,377,187.674,377c-83.671,0-151.5-67.829-151.5-151.5S104.003,74,187.674,74
	c30.544,0,58.978,9.039,82.771,24.588"/>
<g>
	<path fill="none" stroke="#FFFFFF" stroke-width="30" stroke-miterlimit="10" d="M187.248,224.813
		c0-7.019,5.068-45.862-9.696-54.125c-18.777-10.507-60.722-10.418-77.898-1.195c-7.137,3.833-8.401,19.203-8.401,23.59"/>
	
		<line fill="none" stroke="#FFFFFF" stroke-width="30" stroke-miterlimit="10" x1="196.397" y1="275.033" x2="83.327" y2="275.033"/>
	<path fill="none" stroke="#FFFFFF" stroke-width="30" stroke-miterlimit="10" d="M94.39,289.183c0-14.191-3.537-38.565,11.99-55.19
		c12.381-13.256,66.098-9.28,95.916-9.28"/>
</g>
<g>
	<path fill="none" stroke="#FFFFFF" stroke-width="30" stroke-miterlimit="10" d="M317.737,222.165
		c0-6.284,1.929-31.652-1.561-45.607c-3.433-13.727-89.211-13.796-91.15-2.875c-5.34,30.075-4.92,76.319-1.862,95.824
		c2.48,15.812,66.246,18.641,88.514,7.075c7.504-3.896,5.417-18.296,5.417-18.296"/>
	
		<line fill="none" stroke="#FFFFFF" stroke-width="30" stroke-miterlimit="10" x1="224.44" y1="222.525" x2="332.548" y2="222.165"/>
</g>
</svg>
