<?xml version="1.0" encoding="utf-8"?>
<!-- Generator: Adobe Illustrator 16.0.0, SVG Export Plug-In . SVG Version: 6.00 Build 0)  -->
<!DOCTYPE svg PUBLIC "-//W3C//DTD SVG 1.1//EN" "http://www.w3.org/Graphics/SVG/1.1/DTD/svg11.dtd">
<svg version="1.1" id="Calque_1" xmlns="http://www.w3.org/2000/svg" xmlns:xlink="http://www.w3.org/1999/xlink" x="0px" y="0px"
	 width="112.143px" height="103.57px" viewBox="0 0 112.143 103.57" enable-background="new 0 0 112.143 103.57"
	 xml:space="preserve">
<rect x="0.028" y="0" fill="#232323" width="112.144" height="103.572"/>
<g>
	<path fill="none" stroke="#FFFFFF" stroke-width="8" stroke-miterlimit="10" d="M34.427,38.118
		c2.816-11.122,11.685-16.833,22.188-16.833c12.769,0,23.121,10.799,23.121,25.606"/>
	<path fill="#FFFFFF" d="M89.572,80.329H24.909V46.59h64.662V80.329z M57.24,52.013c-4.237,0-7.671,3.776-7.671,8.434
		c0,4.658,3.435,14.46,7.671,14.46c4.236,0,7.671-9.802,7.671-14.46C64.911,55.79,61.477,52.013,57.24,52.013z"/>
</g>
<g>
	<path fill="none" stroke="#FFFFFF" stroke-width="8" stroke-miterlimit="10" d="M34.427,38.118
		c2.816-11.122,11.685-16.833,22.188-16.833c12.769,0,23.121,10.799,23.121,25.606"/>
	<path fill="#FFFFFF" d="M89.572,80.329H24.909V46.59h64.662V80.329z M57.24,52.013c-4.237,0-7.671,3.776-7.671,8.434
		c0,4.658,3.435,14.46,7.671,14.46c4.236,0,7.671-9.802,7.671-14.46C64.911,55.79,61.477,52.013,57.24,52.013z"/>
</g>
<g opacity="0.3">
	<g>
		<path fill="none" stroke="#FFFFFF" stroke-width="8" stroke-miterlimit="10" d="M34.427,38.118
			c2.816-11.122,11.685-16.833,22.188-16.833c12.769,0,23.121,10.799,23.121,25.606"/>
		<path fill="#FFFFFF" d="M57.24,52.013c-4.237,0-7.671,3.776-7.671,8.434c0,4.658,3.435,14.46,7.671,14.46
			c4.236,0,7.671-9.802,7.671-14.46C64.911,55.79,61.477,52.013,57.24,52.013z M89.572,80.329H24.909V46.59h64.662V80.329z"/>
	</g>
	<g>
		<path fill="none" stroke="#FFFFFF" stroke-width="8" stroke-miterlimit="10" d="M35.437,39.128
			c2.816-11.122,11.685-16.833,22.188-16.833c12.769,0,23.121,10.799,23.121,25.606"/>
		<path fill="#FFFFFF" d="M58.25,53.023c-4.237,0-7.671,3.776-7.671,8.434c0,4.658,3.435,14.46,7.671,14.46
			c4.236,0,7.671-9.802,7.671-14.46C65.921,56.8,62.487,53.023,58.25,53.023z M90.581,81.339H25.919v-33.74h64.662V81.339z"/>
	</g>
	<g>
		<path fill="none" stroke="#FFFFFF" stroke-width="8" stroke-miterlimit="10" d="M36.447,40.138
			c2.816-11.122,11.685-16.834,22.188-16.834c12.769,0,23.121,10.799,23.121,25.606"/>
		<path fill="#FFFFFF" d="M59.26,54.033c-4.236,0-7.671,3.776-7.671,8.434c0,4.658,3.435,14.46,7.671,14.46s7.671-9.802,7.671-14.46
			C66.931,57.809,63.496,54.033,59.26,54.033z M91.591,82.348H26.929V48.609h64.662V82.348z"/>
	</g>
	<g>
		<path fill="none" stroke="#FFFFFF" stroke-width="8" stroke-miterlimit="10" d="M37.457,41.148
			c2.816-11.122,11.684-16.833,22.188-16.833c12.77,0,23.121,10.799,23.121,25.605"/>
		<path fill="#FFFFFF" d="M60.27,55.044c-4.236,0-7.671,3.775-7.671,8.433c0,4.658,3.435,14.46,7.671,14.46
			c4.237,0,7.671-9.802,7.671-14.46C67.941,58.819,64.507,55.044,60.27,55.044z M92.602,83.358H27.939V49.619h64.663V83.358z"/>
	</g>
	<g>
		<path fill="none" stroke="#FFFFFF" stroke-width="8" stroke-miterlimit="10" d="M38.467,42.158
			c2.816-11.122,11.685-16.833,22.188-16.833c12.77,0,23.121,10.799,23.121,25.606"/>
		<path fill="#FFFFFF" d="M61.281,56.052c-4.237,0-7.672,3.777-7.672,8.434c0,4.658,3.435,14.46,7.672,14.46
			c4.235,0,7.671-9.802,7.671-14.46C68.951,59.83,65.516,56.052,61.281,56.052z M93.611,84.368H28.949V50.629h64.662V84.368z"/>
	</g>
	<g>
		<path fill="none" stroke="#FFFFFF" stroke-width="8" stroke-miterlimit="10" d="M39.476,43.168
			c2.817-11.122,11.685-16.833,22.189-16.833c12.769,0,23.12,10.799,23.12,25.606"/>
		<path fill="#FFFFFF" d="M62.29,57.063c-4.237,0-7.672,3.776-7.672,8.433c0,4.659,3.435,14.46,7.672,14.46
			c4.236,0,7.67-9.801,7.67-14.46C69.96,60.84,66.527,57.063,62.29,57.063z M94.621,85.379H29.959v-33.74h64.663V85.379z"/>
	</g>
	<g>
		<path fill="none" stroke="#FFFFFF" stroke-width="8" stroke-miterlimit="10" d="M40.486,44.178
			c2.817-11.122,11.685-16.833,22.189-16.833c12.769,0,23.121,10.799,23.121,25.605"/>
		<path fill="#FFFFFF" d="M63.3,58.073c-4.237,0-7.671,3.776-7.671,8.434c0,4.658,3.434,14.46,7.671,14.46
			c4.236,0,7.671-9.802,7.671-14.46C70.971,61.849,67.536,58.073,63.3,58.073z M95.631,86.388H30.969V52.649h64.662V86.388z"/>
	</g>
	<g>
		<path fill="none" stroke="#FFFFFF" stroke-width="8" stroke-miterlimit="10" d="M41.496,45.188
			c2.816-11.122,11.685-16.833,22.188-16.833c12.769,0,23.121,10.799,23.121,25.606"/>
		<path fill="#FFFFFF" d="M64.31,59.083c-4.237,0-7.671,3.776-7.671,8.434c0,4.658,3.434,14.46,7.671,14.46
			c4.236,0,7.671-9.802,7.671-14.46C71.981,62.859,68.546,59.083,64.31,59.083z M96.641,87.398H31.979V53.659h64.662V87.398z"/>
	</g>
	<g>
		<path fill="none" stroke="#FFFFFF" stroke-width="8" stroke-miterlimit="10" d="M42.506,46.198
			c2.816-11.122,11.685-16.833,22.188-16.833c12.769,0,23.121,10.799,23.121,25.606"/>
		<path fill="#FFFFFF" d="M65.32,60.093c-4.236,0-7.671,3.776-7.671,8.434c0,4.658,3.435,14.46,7.671,14.46s7.671-9.802,7.671-14.46
			C72.99,63.869,69.556,60.093,65.32,60.093z M97.651,88.408H32.989V54.669h64.662V88.408z"/>
	</g>
	<g>
		<path fill="none" stroke="#FFFFFF" stroke-width="8" stroke-miterlimit="10" d="M43.516,47.207
			c2.816-11.121,11.685-16.833,22.188-16.833c12.769,0,23.121,10.799,23.121,25.606"/>
		<path fill="#FFFFFF" d="M66.329,61.103c-4.236,0-7.671,3.775-7.671,8.433c0,4.658,3.435,14.46,7.671,14.46S74,74.194,74,69.536
			C74,64.879,70.566,61.103,66.329,61.103z M98.66,89.418H33.998V55.678H98.66V89.418z"/>
	</g>
	<g>
		<path fill="none" stroke="#FFFFFF" stroke-width="8" stroke-miterlimit="10" d="M44.526,48.218
			c2.817-11.122,11.685-16.833,22.188-16.833c12.769,0,23.122,10.799,23.122,25.606"/>
		<path fill="#FFFFFF" d="M67.339,62.112c-4.236,0-7.671,3.776-7.671,8.434c0,4.658,3.435,14.46,7.671,14.46
			s7.671-9.802,7.671-14.46C75.01,65.888,71.575,62.112,67.339,62.112z M99.67,90.427H35.009V56.689H99.67V90.427z"/>
	</g>
	<g>
		<path fill="none" stroke="#FFFFFF" stroke-width="8" stroke-miterlimit="10" d="M45.536,49.227
			c2.816-11.121,11.684-16.833,22.188-16.833c12.769,0,23.122,10.798,23.122,25.605"/>
		<path fill="#FFFFFF" d="M68.35,63.123c-4.237,0-7.672,3.775-7.672,8.433c0,4.658,3.435,14.46,7.672,14.46
			c4.236,0,7.671-9.802,7.671-14.46C76.021,66.898,72.586,63.123,68.35,63.123z M100.68,91.438H36.018v-33.74h64.662V91.438z"/>
	</g>
	<g>
		<path fill="none" stroke="#FFFFFF" stroke-width="8" stroke-miterlimit="10" d="M46.546,50.237
			c2.816-11.122,11.685-16.833,22.189-16.833c12.769,0,23.121,10.799,23.121,25.606"/>
		<path fill="#FFFFFF" d="M69.36,64.133c-4.237,0-7.672,3.776-7.672,8.434s3.435,14.459,7.672,14.459
			c4.235,0,7.671-9.802,7.671-14.459S73.595,64.133,69.36,64.133z M101.691,92.448H37.028V58.709h64.663V92.448z"/>
	</g>
	<g>
		<path fill="none" stroke="#FFFFFF" stroke-width="8" stroke-miterlimit="10" d="M47.555,51.247
			c2.817-11.121,11.685-16.833,22.189-16.833c12.769,0,23.121,10.799,23.121,25.605"/>
		<path fill="#FFFFFF" d="M70.369,65.142c-4.237,0-7.671,3.776-7.671,8.434c0,4.658,3.434,14.46,7.671,14.46
			c4.236,0,7.671-9.802,7.671-14.46C78.04,68.919,74.606,65.142,70.369,65.142z M102.7,93.458H38.038V59.719H102.7V93.458z"/>
	</g>
	<g>
		<path fill="none" stroke="#FFFFFF" stroke-width="8" stroke-miterlimit="10" d="M48.566,52.258
			c2.816-11.122,11.685-16.834,22.188-16.834c12.769,0,23.121,10.799,23.121,25.605"/>
		<path fill="#FFFFFF" d="M71.379,66.152c-4.237,0-7.671,3.776-7.671,8.434c0,4.658,3.434,14.46,7.671,14.46
			c4.236,0,7.671-9.802,7.671-14.46C79.05,69.928,75.615,66.152,71.379,66.152z M103.71,94.468H39.048V60.728h64.662V94.468z"/>
	</g>
	<g>
		<path fill="none" stroke="#FFFFFF" stroke-width="8" stroke-miterlimit="10" d="M49.575,53.267
			c2.816-11.122,11.685-16.834,22.188-16.834c12.769,0,23.121,10.799,23.121,25.606"/>
		<path fill="#FFFFFF" d="M72.389,67.162c-4.237,0-7.671,3.776-7.671,8.434c0,4.658,3.434,14.46,7.671,14.46
			c4.236,0,7.671-9.802,7.671-14.46C80.06,70.938,76.625,67.162,72.389,67.162z M104.72,95.477H40.058V61.738h64.662V95.477z"/>
	</g>
	<g>
		<path fill="none" stroke="#FFFFFF" stroke-width="8" stroke-miterlimit="10" d="M50.585,54.277
			c2.817-11.122,11.686-16.833,22.188-16.833c12.769,0,23.121,10.798,23.121,25.606"/>
		<path fill="#FFFFFF" d="M73.399,68.172c-4.236,0-7.671,3.776-7.671,8.434c0,4.658,3.435,14.461,7.671,14.461
			c4.237,0,7.671-9.803,7.671-14.461C81.07,71.948,77.636,68.172,73.399,68.172z M105.73,96.488H41.068v-33.74h64.662V96.488z"/>
	</g>
	<g>
		<path fill="none" stroke="#FFFFFF" stroke-width="8" stroke-miterlimit="10" d="M51.595,55.287
			c2.816-11.122,11.685-16.833,22.189-16.833c12.768,0,23.121,10.799,23.121,25.606"/>
		<path fill="#FFFFFF" d="M74.408,69.182c-4.236,0-7.671,3.776-7.671,8.433c0,4.658,3.435,14.461,7.671,14.461
			s7.671-9.803,7.671-14.461C82.079,72.959,78.645,69.182,74.408,69.182z M106.74,97.498H42.077v-33.74h64.662V97.498z"/>
	</g>
	<g>
		<path fill="none" stroke="#FFFFFF" stroke-width="8" stroke-miterlimit="10" d="M52.606,56.297
			c2.816-11.122,11.685-16.833,22.188-16.833c12.769,0,23.121,10.799,23.121,25.606"/>
		<path fill="#FFFFFF" d="M75.419,70.191c-4.237,0-7.672,3.777-7.672,8.435c0,4.658,3.435,14.46,7.672,14.46
			c4.236,0,7.67-9.802,7.67-14.46C83.089,73.969,79.656,70.191,75.419,70.191z M107.749,98.507H43.088V64.768h64.662V98.507z"/>
	</g>
	<g>
		<path fill="none" stroke="#FFFFFF" stroke-width="8" stroke-miterlimit="10" d="M53.615,57.306
			C56.432,46.185,65.3,40.473,75.804,40.473c12.769,0,23.121,10.799,23.121,25.606"/>
		<path fill="#FFFFFF" d="M76.429,71.202c-4.237,0-7.672,3.776-7.672,8.433c0,4.659,3.435,14.46,7.672,14.46
			c4.236,0,7.671-9.801,7.671-14.46C84.1,74.978,80.665,71.202,76.429,71.202z M108.76,99.517H44.097v-33.74h64.663V99.517z"/>
	</g>
	<g>
		<path fill="none" stroke="#FFFFFF" stroke-width="8" stroke-miterlimit="10" d="M54.625,58.316
			c2.816-11.122,11.685-16.833,22.188-16.833c12.769,0,23.121,10.798,23.121,25.605"/>
		<path fill="#FFFFFF" d="M77.439,72.212c-4.237,0-7.672,3.776-7.672,8.434c0,4.658,3.435,14.46,7.672,14.46
			c4.236,0,7.671-9.802,7.671-14.46C85.11,75.988,81.675,72.212,77.439,72.212z M109.77,100.527H45.107V66.788h64.663V100.527z"/>
	</g>
	<g>
		<path fill="none" stroke="#FFFFFF" stroke-width="8" stroke-miterlimit="10" d="M55.635,59.326
			c2.816-11.121,11.685-16.833,22.188-16.833c12.769,0,23.121,10.799,23.121,25.605"/>
		<path fill="#FFFFFF" d="M78.448,73.221c-4.237,0-7.671,3.776-7.671,8.434c0,4.658,3.434,14.46,7.671,14.46
			c4.236,0,7.671-9.802,7.671-14.46C86.119,76.998,82.685,73.221,78.448,73.221z M110.78,101.537H46.117V67.798h64.662V101.537z"/>
	</g>
	<g>
		<path fill="none" stroke="#FFFFFF" stroke-width="8" stroke-miterlimit="10" d="M56.645,60.337
			c2.816-11.122,11.685-16.834,22.188-16.834c12.769,0,23.121,10.799,23.121,25.605"/>
		<path fill="#FFFFFF" d="M79.458,74.231c-4.236,0-7.671,3.776-7.671,8.434c0,4.658,3.435,14.46,7.671,14.46
			s7.671-9.802,7.671-14.46C87.129,78.008,83.695,74.231,79.458,74.231z M111.789,102.547H47.127V68.807h64.662V102.547z"/>
	</g>
	<g>
		<path fill="none" stroke="#FFFFFF" stroke-width="8" stroke-miterlimit="10" d="M57.655,61.346
			c2.816-11.122,11.685-16.833,22.188-16.833c12.77,0,23.121,10.798,23.121,25.606"/>
		<path fill="#FFFFFF" d="M80.468,75.241c-4.236,0-7.671,3.776-7.671,8.434c0,4.658,3.435,14.46,7.671,14.46
			s7.671-9.802,7.671-14.46C88.139,79.017,84.704,75.241,80.468,75.241z M112.799,103.556H48.137V69.817h64.662V103.556z"/>
	</g>
	<g>
		<path fill="none" stroke="#FFFFFF" stroke-width="8" stroke-miterlimit="10" d="M58.665,62.356
			c2.815-11.122,11.684-16.834,22.188-16.834c12.77,0,23.121,10.799,23.121,25.606"/>
		<path fill="#FFFFFF" d="M81.478,76.251c-4.236,0-7.671,3.776-7.671,8.434c0,4.658,3.435,14.46,7.671,14.46
			s7.671-9.802,7.671-14.46C89.149,80.027,85.714,76.251,81.478,76.251z M113.809,104.566H49.147V70.828h64.662V104.566z"/>
	</g>
	<g>
		<path fill="none" stroke="#FFFFFF" stroke-width="8" stroke-miterlimit="10" d="M59.675,63.366
			c2.816-11.122,11.684-16.833,22.188-16.833c12.769,0,23.12,10.799,23.12,25.606"/>
		<path fill="#FFFFFF" d="M82.488,77.261c-4.236,0-7.671,3.775-7.671,8.433c0,4.659,3.435,14.46,7.671,14.46
			s7.671-9.801,7.671-14.46C90.158,81.037,86.724,77.261,82.488,77.261z M114.819,105.577H50.157V71.838h64.661V105.577z"/>
	</g>
	<g>
		<path fill="none" stroke="#FFFFFF" stroke-width="8" stroke-miterlimit="10" d="M60.685,64.377
			c2.816-11.123,11.685-16.834,22.188-16.834c12.769,0,23.12,10.799,23.12,25.606"/>
		<path fill="#FFFFFF" d="M83.497,78.271c-4.236,0-7.67,3.775-7.67,8.434s3.434,14.459,7.67,14.459
			c4.237,0,7.672-9.801,7.672-14.459S87.735,78.271,83.497,78.271z M115.829,106.587H51.167V72.847h64.662V106.587z"/>
	</g>
	<g>
		<path fill="none" stroke="#FFFFFF" stroke-width="8" stroke-miterlimit="10" d="M61.695,65.386
			c2.816-11.122,11.685-16.834,22.188-16.834c12.769,0,23.12,10.799,23.12,25.605"/>
		<path fill="#FFFFFF" d="M84.508,79.281c-4.237,0-7.671,3.776-7.671,8.434c0,4.658,3.434,14.46,7.671,14.46
			c4.235,0,7.671-9.802,7.671-14.46C92.179,83.057,88.743,79.281,84.508,79.281z M116.839,107.595H52.177V73.857h64.662V107.595z"/>
	</g>
	<g>
		<path fill="none" stroke="#FFFFFF" stroke-width="8" stroke-miterlimit="10" d="M62.704,66.396
			c2.816-11.122,11.685-16.834,22.188-16.834c12.769,0,23.121,10.799,23.121,25.605"/>
		<path fill="#FFFFFF" d="M85.518,80.291c-4.237,0-7.671,3.776-7.671,8.434c0,4.658,3.434,14.46,7.671,14.46
			c4.236,0,7.671-9.802,7.671-14.46C93.189,84.067,89.754,80.291,85.518,80.291z M117.849,108.606H53.187V74.867h64.662V108.606z"/>
	</g>
	<g>
		<path fill="none" stroke="#FFFFFF" stroke-width="8" stroke-miterlimit="10" d="M63.714,67.406
			c2.816-11.122,11.685-16.834,22.188-16.834c12.769,0,23.121,10.799,23.121,25.605"/>
		<path fill="#FFFFFF" d="M86.528,81.301c-4.237,0-7.671,3.776-7.671,8.434c0,4.658,3.434,14.46,7.671,14.46
			c4.236,0,7.671-9.802,7.671-14.46C94.198,85.077,90.764,81.301,86.528,81.301z M118.859,109.616H54.197V75.877h64.662V109.616z"/>
	</g>
	<g>
		<path fill="none" stroke="#FFFFFF" stroke-width="8" stroke-miterlimit="10" d="M64.724,68.416
			c2.816-11.122,11.685-16.834,22.188-16.834c12.769,0,23.121,10.799,23.121,25.605"/>
		<path fill="#FFFFFF" d="M87.537,82.31c-4.237,0-7.671,3.776-7.671,8.434c0,4.658,3.434,14.461,7.671,14.461
			c4.236,0,7.671-9.803,7.671-14.461C95.208,86.087,91.774,82.31,87.537,82.31z M119.868,110.626H55.207V76.886h64.662V110.626z"/>
	</g>
	<g>
		<path fill="none" stroke="#FFFFFF" stroke-width="8" stroke-miterlimit="10" d="M65.734,69.426
			c2.816-11.122,11.685-16.834,22.188-16.834c12.769,0,23.122,10.799,23.122,25.606"/>
		<path fill="#FFFFFF" d="M88.548,83.32c-4.237,0-7.672,3.777-7.672,8.434c0,4.658,3.435,14.46,7.672,14.46
			c4.236,0,7.67-9.802,7.67-14.46C96.218,87.097,92.784,83.32,88.548,83.32z M120.878,111.636H56.217v-33.74h64.662V111.636z"/>
	</g>
	<g>
		<path fill="none" stroke="#FFFFFF" stroke-width="8" stroke-miterlimit="10" d="M66.743,70.435
			c2.816-11.121,11.685-16.834,22.188-16.834c12.769,0,23.122,10.799,23.122,25.606"/>
		<path fill="#FFFFFF" d="M89.558,84.33c-4.237,0-7.672,3.777-7.672,8.434c0,4.658,3.435,14.46,7.672,14.46
			c4.236,0,7.671-9.802,7.671-14.46C97.229,88.107,93.794,84.33,89.558,84.33z M121.888,112.646H57.227V78.907h64.661V112.646z"/>
	</g>
	<g>
		<path fill="none" stroke="#FFFFFF" stroke-width="8" stroke-miterlimit="10" d="M67.753,71.445
			c2.816-11.122,11.686-16.833,22.189-16.833c12.769,0,23.121,10.799,23.121,25.605"/>
		<path fill="#FFFFFF" d="M90.568,85.341c-4.237,0-7.672,3.776-7.672,8.433c0,4.658,3.435,14.46,7.672,14.46
			c4.236,0,7.67-9.802,7.67-14.46C98.238,89.117,94.804,85.341,90.568,85.341z M122.898,113.656H58.237v-33.74h64.661V113.656z"/>
	</g>
	<g>
		<path fill="none" stroke="#FFFFFF" stroke-width="8" stroke-miterlimit="10" d="M68.764,72.455
			c2.815-11.121,11.685-16.833,22.188-16.833c12.769,0,23.121,10.799,23.121,25.605"/>
		<path fill="#FFFFFF" d="M91.577,86.35c-4.237,0-7.672,3.776-7.672,8.434s3.435,14.46,7.672,14.46c4.236,0,7.67-9.803,7.67-14.46
			S95.814,86.35,91.577,86.35z M123.908,114.666H59.246v-33.74h64.662V114.666z"/>
	</g>
	<g>
		<path fill="none" stroke="#FFFFFF" stroke-width="8" stroke-miterlimit="10" d="M69.774,73.465
			c2.816-11.121,11.685-16.833,22.188-16.833c12.769,0,23.121,10.799,23.121,25.605"/>
		<path fill="#FFFFFF" d="M92.587,87.36c-4.237,0-7.671,3.776-7.671,8.434c0,4.658,3.434,14.46,7.671,14.46
			c4.236,0,7.671-9.802,7.671-14.46C100.258,91.136,96.823,87.36,92.587,87.36z M124.918,115.676H60.256V81.936h64.662V115.676z"/>
	</g>
	<g>
		<path fill="none" stroke="#FFFFFF" stroke-width="8" stroke-miterlimit="10" d="M70.783,74.474
			C73.6,63.353,82.468,57.641,92.972,57.641c12.769,0,23.121,10.799,23.121,25.606"/>
		<path fill="#FFFFFF" d="M93.597,88.37c-4.237,0-7.671,3.776-7.671,8.434c0,4.658,3.434,14.46,7.671,14.46
			c4.236,0,7.671-9.802,7.671-14.46C101.268,92.146,97.833,88.37,93.597,88.37z M125.928,116.685H61.266V82.946h64.662V116.685z"/>
	</g>
	<g>
		<path fill="none" stroke="#FFFFFF" stroke-width="8" stroke-miterlimit="10" d="M71.793,75.485
			c2.816-11.122,11.685-16.834,22.188-16.834c12.769,0,23.121,10.799,23.121,25.606"/>
		<path fill="#FFFFFF" d="M94.607,89.38c-4.236,0-7.671,3.776-7.671,8.434c0,4.658,3.435,14.46,7.671,14.46s7.671-9.802,7.671-14.46
			C102.278,93.156,98.843,89.38,94.607,89.38z M126.938,117.695H62.276V83.956h64.662V117.695z"/>
	</g>
	<g>
		<path fill="none" stroke="#FFFFFF" stroke-width="8" stroke-miterlimit="10" d="M72.803,76.495
			c2.816-11.122,11.685-16.833,22.188-16.833c12.77,0,23.121,10.799,23.121,25.605"/>
		<path fill="#FFFFFF" d="M95.616,90.389c-4.236,0-7.671,3.776-7.671,8.435s3.435,14.459,7.671,14.459s7.671-9.801,7.671-14.459
			S99.853,90.389,95.616,90.389z M127.948,118.705H63.286V84.966h64.661V118.705z"/>
	</g>
	<g>
		<path fill="none" stroke="#FFFFFF" stroke-width="8" stroke-miterlimit="10" d="M73.813,77.505
			c2.817-11.122,11.685-16.834,22.188-16.834c12.77,0,23.121,10.799,23.121,25.606"/>
		<path fill="#FFFFFF" d="M96.626,91.4c-4.236,0-7.671,3.775-7.671,8.433c0,4.659,3.435,14.46,7.671,14.46s7.672-9.801,7.672-14.46
			C104.298,95.176,100.863,91.4,96.626,91.4z M128.957,119.716H64.296V85.976h64.661V119.716z"/>
	</g>
	<g>
		<path fill="none" stroke="#FFFFFF" stroke-width="8" stroke-miterlimit="10" d="M74.823,78.514
			c2.816-11.122,11.684-16.833,22.188-16.833c12.77,0,23.121,10.799,23.121,25.605"/>
		<path fill="#FFFFFF" d="M97.636,92.41c-4.236,0-7.67,3.775-7.67,8.434s3.434,14.459,7.67,14.459s7.672-9.801,7.672-14.459
			S101.872,92.41,97.636,92.41z M129.968,120.725H65.306v-33.74h64.662V120.725z"/>
	</g>
	<g>
		<path fill="none" stroke="#FFFFFF" stroke-width="8" stroke-miterlimit="10" d="M75.833,79.525
			c2.816-11.122,11.685-16.834,22.188-16.834c12.77,0,23.121,10.799,23.121,25.605"/>
		<path fill="#FFFFFF" d="M98.647,93.42c-4.237,0-7.671,3.775-7.671,8.434s3.434,14.46,7.671,14.46c4.236,0,7.671-9.802,7.671-14.46
			S102.883,93.42,98.647,93.42z M130.978,121.734H66.316V87.996h64.662V121.734z"/>
	</g>
	<g>
		<path fill="none" stroke="#FFFFFF" stroke-width="8" stroke-miterlimit="10" d="M76.843,80.535
			c2.816-11.123,11.685-16.834,22.188-16.834c12.769,0,23.121,10.799,23.121,25.605"/>
		<path fill="#FFFFFF" d="M99.656,94.429c-4.237,0-7.671,3.776-7.671,8.434c0,4.658,3.434,14.46,7.671,14.46
			c4.235,0,7.671-9.802,7.671-14.46C107.327,98.206,103.892,94.429,99.656,94.429z M131.988,122.745H67.325V89.006h64.662V122.745z"
			/>
	</g>
	<g>
		<path fill="none" stroke="#FFFFFF" stroke-width="8" stroke-miterlimit="10" d="M77.853,81.545
			c2.816-11.122,11.685-16.834,22.188-16.834c12.769,0,23.121,10.799,23.121,25.605"/>
		<path fill="#FFFFFF" d="M100.666,95.439c-4.237,0-7.671,3.776-7.671,8.434c0,4.658,3.434,14.46,7.671,14.46
			c4.236,0,7.671-9.802,7.671-14.46C108.337,99.216,104.903,95.439,100.666,95.439z M132.997,123.755H68.335V90.015h64.662V123.755z
			"/>
	</g>
	<g>
		<path fill="none" stroke="#FFFFFF" stroke-width="8" stroke-miterlimit="10" d="M78.863,82.554
			c2.816-11.122,11.685-16.834,22.188-16.834c12.769,0,23.121,10.799,23.121,25.605"/>
		<path fill="#FFFFFF" d="M101.676,96.449c-4.237,0-7.671,3.776-7.671,8.434c0,4.658,3.434,14.46,7.671,14.46
			c4.236,0,7.671-9.802,7.671-14.46C109.347,100.225,105.912,96.449,101.676,96.449z M134.007,124.764H69.345V91.025h64.662V124.764
			z"/>
	</g>
	<g>
		<path fill="none" stroke="#FFFFFF" stroke-width="8" stroke-miterlimit="10" d="M79.872,83.564
			c2.816-11.122,11.685-16.834,22.188-16.834c12.769,0,23.121,10.799,23.121,25.605"/>
		<path fill="#FFFFFF" d="M102.687,97.459c-4.237,0-7.672,3.776-7.672,8.434c0,4.658,3.435,14.46,7.672,14.46
			c4.235,0,7.67-9.802,7.67-14.46C110.357,101.235,106.922,97.459,102.687,97.459z M135.017,125.775H70.355v-33.74h64.662V125.775z"
			/>
	</g>
	<g>
		<path fill="none" stroke="#FFFFFF" stroke-width="8" stroke-miterlimit="10" d="M80.882,84.574
			c2.816-11.121,11.686-16.834,22.189-16.834c12.768,0,23.121,10.799,23.121,25.605"/>
		<path fill="#FFFFFF" d="M103.696,98.469c-4.236,0-7.671,3.777-7.671,8.434c0,4.658,3.435,14.46,7.671,14.46
			c4.237,0,7.671-9.802,7.671-14.46C111.366,102.246,107.933,98.469,103.696,98.469z M136.027,126.785H71.365v-33.74h64.662V126.785
			z"/>
	</g>
	<g>
		<path fill="none" stroke="#FFFFFF" stroke-width="8" stroke-miterlimit="10" d="M81.892,85.584
			c2.816-11.121,11.686-16.834,22.189-16.834c12.768,0,23.121,10.799,23.121,25.606"/>
		<path fill="#FFFFFF" d="M104.705,99.479c-4.236,0-7.671,3.776-7.671,8.433c0,4.658,3.435,14.46,7.671,14.46
			c4.237,0,7.671-9.802,7.671-14.46C112.376,103.256,108.943,99.479,104.705,99.479z M137.036,127.795H72.374V94.055h64.662V127.795
			z"/>
	</g>
	<g>
		<path fill="none" stroke="#FFFFFF" stroke-width="8" stroke-miterlimit="10" d="M82.902,86.594
			c2.816-11.121,11.686-16.833,22.189-16.833c12.769,0,23.121,10.799,23.121,25.605"/>
		<path fill="#FFFFFF" d="M105.716,100.488c-4.237,0-7.671,3.777-7.671,8.435c0,4.658,3.434,14.46,7.671,14.46
			c4.236,0,7.671-9.802,7.671-14.46C113.387,104.265,109.952,100.488,105.716,100.488z M138.047,128.804H73.385v-33.74h64.662
			V128.804z"/>
	</g>
	<g>
		<path fill="none" stroke="#FFFFFF" stroke-width="8" stroke-miterlimit="10" d="M83.911,87.604
			c2.817-11.122,11.686-16.834,22.189-16.834c12.769,0,23.121,10.799,23.121,25.605"/>
		<path fill="#FFFFFF" d="M106.726,101.499c-4.237,0-7.671,3.776-7.671,8.434c0,4.658,3.434,14.46,7.671,14.46
			c4.236,0,7.671-9.802,7.671-14.46C114.397,105.275,110.962,101.499,106.726,101.499z M139.057,129.814H74.395V96.075h64.662
			V129.814z"/>
	</g>
	<g>
		<path fill="none" stroke="#FFFFFF" stroke-width="8" stroke-miterlimit="10" d="M84.922,88.614
			c2.816-11.122,11.685-16.834,22.188-16.834c12.769,0,23.121,10.799,23.121,25.606"/>
		<path fill="#FFFFFF" d="M107.736,102.509c-4.237,0-7.671,3.776-7.671,8.434c0,4.658,3.434,14.46,7.671,14.46
			c4.236,0,7.671-9.802,7.671-14.46C115.406,106.285,111.972,102.509,107.736,102.509z M140.067,130.824H75.405V97.085h64.662
			V130.824z"/>
	</g>
	<g>
		<path fill="none" stroke="#FFFFFF" stroke-width="8" stroke-miterlimit="10" d="M85.932,89.624
			C88.748,78.502,97.616,72.79,108.12,72.79c12.769,0,23.121,10.799,23.121,25.605"/>
		<path fill="#FFFFFF" d="M108.745,103.518c-4.237,0-7.671,3.776-7.671,8.434c0,4.658,3.434,14.46,7.671,14.46
			c4.236,0,7.671-9.802,7.671-14.46C116.416,107.295,112.982,103.518,108.745,103.518z M141.076,131.834H76.414V98.094h64.662
			V131.834z"/>
	</g>
	<g>
		<path fill="none" stroke="#FFFFFF" stroke-width="8" stroke-miterlimit="10" d="M86.942,90.634
			c2.817-11.122,11.685-16.833,22.188-16.833c12.769,0,23.121,10.798,23.121,25.604"/>
		<path fill="#FFFFFF" d="M109.755,104.528c-4.236,0-7.671,3.776-7.671,8.434c0,4.658,3.435,14.46,7.671,14.46
			s7.671-9.802,7.671-14.46C117.426,108.304,113.991,104.528,109.755,104.528z M142.086,132.844H77.424V99.104h64.662V132.844z"/>
	</g>
	<g>
		<path fill="none" stroke="#FFFFFF" stroke-width="8" stroke-miterlimit="10" d="M87.951,91.643
			c2.817-11.122,11.685-16.834,22.188-16.834c12.769,0,23.121,10.8,23.121,25.606"/>
		<path fill="#FFFFFF" d="M110.765,105.539c-4.236,0-7.671,3.775-7.671,8.433c0,4.659,3.435,14.46,7.671,14.46
			s7.671-9.801,7.671-14.46C118.436,109.314,115.001,105.539,110.765,105.539z M143.097,133.853H78.435v-33.739h64.662V133.853z"/>
	</g>
	<g>
		<path fill="none" stroke="#FFFFFF" stroke-width="8" stroke-miterlimit="10" d="M88.961,92.654
			c2.816-11.123,11.686-16.834,22.188-16.834c12.769,0,23.121,10.798,23.121,25.605"/>
		<path fill="#FFFFFF" d="M111.775,106.549c-4.236,0-7.671,3.776-7.671,8.433c0,4.659,3.435,14.461,7.671,14.461
			s7.672-9.802,7.672-14.461C119.447,110.325,116.011,106.549,111.775,106.549z M144.107,134.863H79.445v-33.738h64.662V134.863z"/>
	</g>
	<g>
		<path fill="none" stroke="#FFFFFF" stroke-width="8" stroke-miterlimit="10" d="M89.972,93.664
			c2.816-11.122,11.685-16.834,22.188-16.834c12.77,0,23.121,10.799,23.121,25.605"/>
		<path fill="#FFFFFF" d="M112.784,107.558c-4.236,0-7.671,3.775-7.671,8.434s3.435,14.459,7.671,14.459
			c4.237,0,7.672-9.801,7.672-14.459S117.022,107.558,112.784,107.558z M145.116,135.873H80.454v-33.738h64.662V135.873z"/>
	</g>
	<g>
		<path fill="none" stroke="#FFFFFF" stroke-width="8" stroke-miterlimit="10" d="M90.982,94.674
			c2.816-11.122,11.685-16.834,22.188-16.834c12.77,0,23.122,10.799,23.122,25.605"/>
		<path fill="#FFFFFF" d="M113.795,108.568c-4.237,0-7.671,3.775-7.671,8.434s3.434,14.459,7.671,14.459
			c4.236,0,7.671-9.801,7.671-14.459S118.031,108.568,113.795,108.568z M146.126,136.884H81.464v-33.739h64.662V136.884z"/>
	</g>
	<g>
		<path fill="none" stroke="#FFFFFF" stroke-width="8" stroke-miterlimit="10" d="M91.991,95.683
			c2.816-11.122,11.685-16.834,22.188-16.834c12.769,0,23.121,10.799,23.121,25.605"/>
		<path fill="#FFFFFF" d="M114.805,109.578c-4.237,0-7.671,3.776-7.671,8.434c0,4.658,3.434,14.46,7.671,14.46
			c4.236,0,7.671-9.802,7.671-14.46C122.476,113.354,119.041,109.578,114.805,109.578z M147.136,137.893H82.474v-33.739h64.662
			V137.893z"/>
	</g>
	<g>
		<path fill="none" stroke="#FFFFFF" stroke-width="8" stroke-miterlimit="10" d="M93.001,96.693
			c2.816-11.122,11.685-16.834,22.188-16.834c12.769,0,23.121,10.799,23.121,25.605"/>
		<path fill="#FFFFFF" d="M115.815,110.588c-4.237,0-7.671,3.776-7.671,8.434c0,4.658,3.434,14.46,7.671,14.46
			c4.236,0,7.671-9.802,7.671-14.46C123.486,114.364,120.051,110.588,115.815,110.588z M148.146,138.903H83.484v-33.739h64.662
			V138.903z"/>
	</g>
	<g>
		<path fill="none" stroke="#FFFFFF" stroke-width="8" stroke-miterlimit="10" d="M94.011,97.703
			c2.816-11.122,11.686-16.834,22.188-16.834c12.769,0,23.121,10.799,23.121,25.605"/>
		<path fill="#FFFFFF" d="M116.824,111.597c-4.237,0-7.671,3.776-7.671,8.434c0,4.658,3.434,14.46,7.671,14.46
			c4.236,0,7.671-9.802,7.671-14.46C124.495,115.374,121.061,111.597,116.824,111.597z M149.156,139.913H84.493v-33.739h64.662
			V139.913z"/>
	</g>
	<g>
		<path fill="none" stroke="#FFFFFF" stroke-width="8" stroke-miterlimit="10" d="M95.021,98.713
			c2.816-11.122,11.686-16.834,22.188-16.834c12.769,0,23.121,10.799,23.121,25.605"/>
		<path fill="#FFFFFF" d="M117.835,112.607c-4.238,0-7.672,3.777-7.672,8.434c0,4.658,3.434,14.46,7.672,14.46
			c4.236,0,7.67-9.802,7.67-14.46C125.505,116.385,122.072,112.607,117.835,112.607z M150.165,140.924H85.503v-33.74h64.662V140.924
			z"/>
	</g>
	<g>
		<path fill="none" stroke="#FFFFFF" stroke-width="8" stroke-miterlimit="10" d="M96.031,99.722
			c2.816-11.121,11.686-16.834,22.188-16.834c12.769,0,23.122,10.799,23.122,25.605"/>
		<path fill="#FFFFFF" d="M118.844,113.617c-4.237,0-7.671,3.777-7.671,8.434c0,4.659,3.434,14.46,7.671,14.46
			c4.236,0,7.672-9.801,7.672-14.46C126.516,117.394,123.08,113.617,118.844,113.617z M151.175,141.933H86.513v-33.74h64.662
			V141.933z"/>
	</g>
	<g>
		<path fill="none" stroke="#FFFFFF" stroke-width="8" stroke-miterlimit="10" d="M97.04,100.732
			c2.816-11.121,11.686-16.834,22.189-16.834c12.769,0,23.121,10.8,23.121,25.606"/>
		<path fill="#FFFFFF" d="M119.855,114.628c-4.237,0-7.672,3.776-7.672,8.434c0,4.658,3.435,14.46,7.672,14.46
			c4.236,0,7.67-9.802,7.67-14.46C127.525,118.404,124.091,114.628,119.855,114.628z M152.185,142.943H87.523v-33.74h64.662V142.943
			z"/>
	</g>
	<g>
		<path fill="none" stroke="#FFFFFF" stroke-width="8" stroke-miterlimit="10" d="M98.051,101.742
			c2.815-11.121,11.685-16.833,22.188-16.833c12.769,0,23.121,10.799,23.121,25.605"/>
		<path fill="#FFFFFF" d="M120.865,115.637c-4.237,0-7.671,3.776-7.671,8.433c0,4.659,3.434,14.461,7.671,14.461
			c4.236,0,7.67-9.802,7.67-14.461C128.534,119.414,125.101,115.637,120.865,115.637z M153.196,143.953H88.533v-33.739h64.662
			V143.953z"/>
	</g>
	<g>
		<path fill="none" stroke="#FFFFFF" stroke-width="8" stroke-miterlimit="10" d="M99.061,102.753
			c2.816-11.122,11.685-16.834,22.188-16.834c12.769,0,23.121,10.799,23.121,25.605"/>
		<path fill="#FFFFFF" d="M121.874,116.647c-4.237,0-7.671,3.776-7.671,8.434c0,4.658,3.434,14.46,7.671,14.46
			c4.236,0,7.671-9.802,7.671-14.46C129.545,120.424,126.111,116.647,121.874,116.647z M154.205,144.963H89.543v-33.739h64.662
			V144.963z"/>
	</g>
	<g>
		<path fill="none" stroke="#FFFFFF" stroke-width="8" stroke-miterlimit="10" d="M100.071,103.762
			c2.816-11.122,11.685-16.834,22.188-16.834c12.769,0,23.121,10.799,23.121,25.605"/>
		<path fill="#FFFFFF" d="M122.884,117.657c-4.237,0-7.671,3.776-7.671,8.434c0,4.658,3.434,14.46,7.671,14.46
			c4.236,0,7.671-9.802,7.671-14.46C130.555,121.433,127.12,117.657,122.884,117.657z M155.215,145.972H90.553v-33.739h64.662
			V145.972z"/>
	</g>
	<g>
		<path fill="none" stroke="#FFFFFF" stroke-width="8" stroke-miterlimit="10" d="M101.08,104.772
			c2.817-11.122,11.685-16.834,22.188-16.834c12.769,0,23.121,10.799,23.121,25.606"/>
		<path fill="#FFFFFF" d="M123.894,118.667c-4.236,0-7.671,3.776-7.671,8.434c0,4.658,3.435,14.46,7.671,14.46
			s7.672-9.802,7.672-14.46C131.566,122.443,128.13,118.667,123.894,118.667z M156.225,146.982H91.563v-33.739h64.662V146.982z"/>
	</g>
	<g>
		<path fill="none" stroke="#FFFFFF" stroke-width="8" stroke-miterlimit="10" d="M102.091,105.782
			c2.815-11.122,11.684-16.833,22.188-16.833c12.769,0,23.121,10.799,23.121,25.605"/>
		<path fill="#FFFFFF" d="M124.904,119.677c-4.236,0-7.671,3.775-7.671,8.433c0,4.658,3.435,14.46,7.671,14.46
			s7.671-9.802,7.671-14.46C132.574,123.453,129.14,119.677,124.904,119.677z M157.236,147.992H92.573v-33.739h64.663V147.992z"/>
	</g>
	<g>
		<path fill="none" stroke="#FFFFFF" stroke-width="8" stroke-miterlimit="10" d="M103.101,106.792
			c2.815-11.122,11.684-16.834,22.188-16.834c12.769,0,23.121,10.799,23.121,25.606"/>
		<path fill="#FFFFFF" d="M125.913,120.687c-4.236,0-7.671,3.776-7.671,8.433c0,4.658,3.435,14.46,7.671,14.46
			c4.237,0,7.671-9.802,7.671-14.46C133.584,124.464,130.151,120.687,125.913,120.687z M158.245,149.002H93.583v-33.738h64.662
			V149.002z"/>
	</g>
	<g>
		<path fill="none" stroke="#FFFFFF" stroke-width="8" stroke-miterlimit="10" d="M104.111,107.802
			c2.816-11.122,11.684-16.834,22.188-16.834c12.768,0,23.12,10.799,23.12,25.605"/>
		<path fill="#FFFFFF" d="M126.923,121.697c-4.236,0-7.67,3.775-7.67,8.434c0,4.657,3.434,14.459,7.67,14.459
			s7.672-9.802,7.672-14.459C134.595,125.472,131.159,121.697,126.923,121.697z M159.254,150.011H94.593v-33.738h64.661V150.011z"/>
	</g>
	<g>
		<path fill="none" stroke="#FFFFFF" stroke-width="8" stroke-miterlimit="10" d="M105.12,108.812
			c2.816-11.123,11.684-16.834,22.188-16.834c12.769,0,23.121,10.799,23.121,25.605"/>
		<path fill="#FFFFFF" d="M127.934,122.707c-4.237,0-7.671,3.775-7.671,8.434s3.434,14.459,7.671,14.459
			c4.236,0,7.671-9.801,7.671-14.459S132.17,122.707,127.934,122.707z M160.265,151.022H95.603v-33.739h64.662V151.022z"/>
	</g>
	<g>
		<path fill="none" stroke="#FFFFFF" stroke-width="8" stroke-miterlimit="10" d="M106.13,109.822
			c2.816-11.122,11.685-16.834,22.188-16.834c12.769,0,23.121,10.799,23.121,25.605"/>
		<path fill="#FFFFFF" d="M128.944,123.717c-4.237,0-7.671,3.776-7.671,8.434c0,4.658,3.434,14.46,7.671,14.46
			c4.236,0,7.671-9.802,7.671-14.46C136.615,127.493,133.18,123.717,128.944,123.717z M161.275,152.032H96.613v-33.739h64.662
			V152.032z"/>
	</g>
	<g>
		<path fill="none" stroke="#FFFFFF" stroke-width="8" stroke-miterlimit="10" d="M107.14,110.832
			c2.816-11.122,11.685-16.834,22.188-16.834c12.769,0,23.121,10.799,23.121,25.605"/>
		<path fill="#FFFFFF" d="M129.953,124.726c-4.237,0-7.671,3.776-7.671,8.434c0,4.658,3.434,14.46,7.671,14.46
			c4.236,0,7.671-9.802,7.671-14.46C137.624,128.503,134.19,124.726,129.953,124.726z M162.284,153.042H97.622v-33.739h64.662
			V153.042z"/>
	</g>
	<g>
		<path fill="none" stroke="#FFFFFF" stroke-width="8" stroke-miterlimit="10" d="M108.15,111.842
			c2.816-11.122,11.685-16.834,22.188-16.834c12.769,0,23.121,10.799,23.121,25.605"/>
		<path fill="#FFFFFF" d="M130.963,125.736c-4.237,0-7.671,3.776-7.671,8.434c0,4.658,3.434,14.46,7.671,14.46
			c4.236,0,7.671-9.802,7.671-14.46C138.634,129.512,135.199,125.736,130.963,125.736z M163.294,154.052H98.632v-33.739h64.662
			V154.052z"/>
	</g>
	<g>
		<path fill="none" stroke="#FFFFFF" stroke-width="8" stroke-miterlimit="10" d="M109.159,112.851
			c2.816-11.122,11.685-16.834,22.188-16.834c12.769,0,23.121,10.799,23.121,25.605"/>
		<path fill="#FFFFFF" d="M131.973,126.746c-4.237,0-7.671,3.777-7.671,8.434c0,4.658,3.434,14.46,7.671,14.46
			c4.236,0,7.671-9.802,7.671-14.46C139.644,130.523,136.209,126.746,131.973,126.746z M164.304,155.061H99.642v-33.739h64.662
			V155.061z"/>
	</g>
	<g>
		<path fill="none" stroke="#FFFFFF" stroke-width="8" stroke-miterlimit="10" d="M110.169,113.861
			c2.816-11.121,11.685-16.834,22.189-16.834c12.768,0,23.121,10.799,23.121,25.605"/>
		<path fill="#FFFFFF" d="M132.983,127.756c-4.237,0-7.671,3.777-7.671,8.434c0,4.658,3.434,14.46,7.671,14.46
			s7.671-9.802,7.671-14.46C140.654,131.533,137.22,127.756,132.983,127.756z M165.314,156.072h-64.662v-33.74h64.662V156.072z"/>
	</g>
	<g>
		<path fill="none" stroke="#FFFFFF" stroke-width="8" stroke-miterlimit="10" d="M111.18,114.871
			c2.815-11.122,11.685-16.833,22.188-16.833c12.768,0,23.121,10.799,23.121,25.605"/>
		<path fill="#FFFFFF" d="M133.993,128.766c-4.237,0-7.671,3.775-7.671,8.433c0,4.658,3.434,14.46,7.671,14.46
			c4.235,0,7.67-9.802,7.67-14.46C141.663,132.542,138.229,128.766,133.993,128.766z M166.323,157.082h-64.661v-33.74h64.661
			V157.082z"/>
	</g>
	<g>
		<path fill="none" stroke="#FFFFFF" stroke-width="8" stroke-miterlimit="10" d="M112.19,115.881
			c2.815-11.121,11.685-16.833,22.188-16.833c12.769,0,23.121,10.798,23.121,25.605"/>
		<path fill="#FFFFFF" d="M135.003,129.775c-4.237,0-7.671,3.777-7.671,8.434c0,4.658,3.434,14.461,7.671,14.461
			c4.236,0,7.671-9.803,7.671-14.461C142.674,133.552,139.24,129.775,135.003,129.775z M167.334,158.092h-64.662v-33.739h64.662
			V158.092z"/>
	</g>
	<g>
		<path fill="none" stroke="#FFFFFF" stroke-width="8" stroke-miterlimit="10" d="M113.199,116.89
			c2.816-11.121,11.685-16.833,22.188-16.833c12.769,0,23.121,10.799,23.121,25.605"/>
		<path fill="#FFFFFF" d="M136.013,130.786c-4.237,0-7.671,3.776-7.671,8.434c0,4.658,3.434,14.46,7.671,14.46
			c4.236,0,7.671-9.802,7.671-14.46C143.684,134.562,140.249,130.786,136.013,130.786z M168.344,159.101h-64.662v-33.739h64.662
			V159.101z"/>
	</g>
	<g>
		<path fill="none" stroke="#FFFFFF" stroke-width="8" stroke-miterlimit="10" d="M114.209,117.901
			c2.816-11.122,11.685-16.834,22.188-16.834c12.769,0,23.121,10.799,23.121,25.605"/>
		<path fill="#FFFFFF" d="M137.023,131.796c-4.237,0-7.671,3.776-7.671,8.434c0,4.658,3.434,14.46,7.671,14.46
			c4.236,0,7.671-9.802,7.671-14.46C144.694,135.572,141.259,131.796,137.023,131.796z M169.354,160.111h-64.662v-33.739h64.662
			V160.111z"/>
	</g>
	<g>
		<path fill="none" stroke="#FFFFFF" stroke-width="8" stroke-miterlimit="10" d="M115.219,118.911
			c2.816-11.122,11.685-16.834,22.188-16.834c12.769,0,23.121,10.799,23.121,25.605"/>
		<path fill="#FFFFFF" d="M138.032,132.805c-4.237,0-7.671,3.776-7.671,8.434c0,4.658,3.434,14.46,7.671,14.46
			c4.236,0,7.671-9.802,7.671-14.46C145.703,136.582,142.269,132.805,138.032,132.805z M170.364,161.121h-64.662v-33.739h64.662
			V161.121z"/>
	</g>
	<g>
		<path fill="none" stroke="#FFFFFF" stroke-width="8" stroke-miterlimit="10" d="M116.229,119.921
			c2.816-11.122,11.685-16.834,22.188-16.834c12.769,0,23.121,10.799,23.121,25.605"/>
		<path fill="#FFFFFF" d="M139.042,133.816c-4.236,0-7.671,3.775-7.671,8.433c0,4.658,3.435,14.46,7.671,14.46
			s7.671-9.802,7.671-14.46C146.713,137.592,143.279,133.816,139.042,133.816z M171.374,162.131h-64.663v-33.739h64.663V162.131z"/>
	</g>
	<g>
		<path fill="none" stroke="#FFFFFF" stroke-width="8" stroke-miterlimit="10" d="M117.239,120.93
			c2.816-11.122,11.685-16.834,22.188-16.834c12.77,0,23.121,10.8,23.121,25.605"/>
		<path fill="#FFFFFF" d="M140.052,134.825c-4.236,0-7.671,3.776-7.671,8.434c0,4.658,3.435,14.46,7.671,14.46
			s7.672-9.802,7.672-14.46C147.724,138.601,144.288,134.825,140.052,134.825z M172.383,163.14h-64.662v-33.739h64.662V163.14z"/>
	</g>
	<g>
		<path fill="none" stroke="#FFFFFF" stroke-width="8" stroke-miterlimit="10" d="M118.249,121.94
			c2.816-11.122,11.685-16.833,22.188-16.833c12.77,0,23.121,10.798,23.121,25.605"/>
		<path fill="#FFFFFF" d="M141.063,135.836c-4.238,0-7.671,3.776-7.671,8.434c0,4.658,3.433,14.459,7.671,14.459
			c4.236,0,7.671-9.801,7.671-14.459C148.734,139.612,145.299,135.836,141.063,135.836z M173.393,164.15h-64.662v-33.738h64.662
			V164.15z"/>
	</g>
	<g>
		<path fill="none" stroke="#FFFFFF" stroke-width="8" stroke-miterlimit="10" d="M119.259,122.951
			c2.816-11.123,11.685-16.834,22.188-16.834c12.769,0,23.121,10.799,23.121,25.605"/>
		<path fill="#FFFFFF" d="M142.073,136.845c-4.237,0-7.671,3.776-7.671,8.434c0,4.658,3.434,14.459,7.671,14.459
			c4.235,0,7.67-9.801,7.67-14.459C149.742,140.622,146.308,136.845,142.073,136.845z M174.404,165.16h-64.662v-33.738h64.662
			V165.16z"/>
	</g>
	<g>
		<path fill="none" stroke="#FFFFFF" stroke-width="8" stroke-miterlimit="10" d="M120.269,123.961
			c2.816-11.122,11.685-16.834,22.188-16.834c12.769,0,23.121,10.799,23.121,25.605"/>
		<path fill="#FFFFFF" d="M143.082,137.855c-4.237,0-7.671,3.775-7.671,8.434s3.434,14.46,7.671,14.46
			c4.236,0,7.671-9.802,7.671-14.46S147.319,137.855,143.082,137.855z M175.413,166.171h-64.662v-33.739h64.662V166.171z"/>
	</g>
	<g>
		<path fill="none" stroke="#FFFFFF" stroke-width="8" stroke-miterlimit="10" d="M121.279,124.97
			c2.816-11.122,11.685-16.834,22.188-16.834c12.769,0,23.121,10.799,23.121,25.605"/>
		<path fill="#FFFFFF" d="M144.092,138.865c-4.237,0-7.671,3.776-7.671,8.434c0,4.658,3.434,14.46,7.671,14.46
			c4.236,0,7.671-9.802,7.671-14.46C151.763,142.641,148.328,138.865,144.092,138.865z M176.423,167.18h-64.662v-33.739h64.662
			V167.18z"/>
	</g>
	<g>
		<path fill="none" stroke="#FFFFFF" stroke-width="8" stroke-miterlimit="10" d="M122.288,125.98
			c2.816-11.122,11.685-16.834,22.188-16.834c12.769,0,23.121,10.799,23.121,25.605"/>
		<path fill="#FFFFFF" d="M145.102,139.875c-4.237,0-7.671,3.776-7.671,8.434c0,4.658,3.434,14.46,7.671,14.46
			c4.236,0,7.671-9.802,7.671-14.46C152.773,143.651,149.338,139.875,145.102,139.875z M177.433,168.19h-64.662v-33.739h64.662
			V168.19z"/>
	</g>
	<g>
		<path fill="none" stroke="#FFFFFF" stroke-width="8" stroke-miterlimit="10" d="M123.298,126.99
			c2.816-11.122,11.685-16.834,22.188-16.834c12.769,0,23.121,10.799,23.121,25.605"/>
		<path fill="#FFFFFF" d="M146.112,140.885c-4.237,0-7.671,3.777-7.671,8.434c0,4.658,3.434,14.46,7.671,14.46
			c4.236,0,7.671-9.802,7.671-14.46C153.782,144.662,150.348,140.885,146.112,140.885z M178.443,169.2h-64.662v-33.739h64.662V169.2
			z"/>
	</g>
	<g>
		<path fill="none" stroke="#FFFFFF" stroke-width="8" stroke-miterlimit="10" d="M124.308,128
			c2.816-11.122,11.685-16.834,22.188-16.834c12.769,0,23.121,10.799,23.121,25.605"/>
		<path fill="#FFFFFF" d="M147.121,141.894c-4.237,0-7.671,3.776-7.671,8.434c0,4.658,3.434,14.46,7.671,14.46
			c4.236,0,7.671-9.802,7.671-14.46C154.792,145.671,151.358,141.894,147.121,141.894z M179.452,170.21H114.79v-33.738h64.662
			V170.21z"/>
	</g>
	<g>
		<path fill="none" stroke="#FFFFFF" stroke-width="8" stroke-miterlimit="10" d="M125.318,129.01
			c2.816-11.123,11.685-16.835,22.188-16.835c12.769,0,23.122,10.8,23.122,25.605"/>
		<path fill="#FFFFFF" d="M148.132,142.905c-4.237,0-7.671,3.775-7.671,8.433c0,4.658,3.434,14.46,7.671,14.46
			c4.236,0,7.671-9.802,7.671-14.46C155.803,146.68,152.368,142.905,148.132,142.905z M180.462,171.22H115.8v-33.74h64.662V171.22z"
			/>
	</g>
	<g>
		<path fill="none" stroke="#FFFFFF" stroke-width="8" stroke-miterlimit="10" d="M126.328,130.02
			c2.815-11.122,11.685-16.835,22.188-16.835c12.769,0,23.122,10.799,23.122,25.606"/>
		<path fill="#FFFFFF" d="M149.142,143.914c-4.237,0-7.671,3.777-7.671,8.434c0,4.659,3.434,14.461,7.671,14.461
			c4.236,0,7.671-9.802,7.671-14.461C156.813,147.691,153.378,143.914,149.142,143.914z M181.473,172.23H116.81v-33.739h64.663
			V172.23z"/>
	</g>
	<g>
		<path fill="none" stroke="#FFFFFF" stroke-width="8" stroke-miterlimit="10" d="M127.338,131.03
			c2.816-11.122,11.685-16.834,22.188-16.834c12.769,0,23.121,10.799,23.121,25.605"/>
		<path fill="#FFFFFF" d="M150.152,144.925c-4.237,0-7.671,3.776-7.671,8.434c0,4.658,3.434,14.46,7.671,14.46
			c4.236,0,7.671-9.802,7.671-14.46C157.823,148.701,154.388,144.925,150.152,144.925z M182.483,173.24h-64.662v-33.739h64.662
			V173.24z"/>
	</g>
	<g>
		<path fill="none" stroke="#FFFFFF" stroke-width="8" stroke-miterlimit="10" d="M128.348,132.04
			c2.816-11.122,11.685-16.834,22.188-16.834c12.769,0,23.121,10.799,23.121,25.605"/>
		<path fill="#FFFFFF" d="M151.161,145.934c-4.237,0-7.671,3.776-7.671,8.434c0,4.658,3.434,14.46,7.671,14.46
			c4.236,0,7.671-9.802,7.671-14.46C158.832,149.711,155.398,145.934,151.161,145.934z M183.492,174.25H118.83V140.51h64.662V174.25
			z"/>
	</g>
	<g>
		<path fill="none" stroke="#FFFFFF" stroke-width="8" stroke-miterlimit="10" d="M129.358,133.05
			c2.816-11.122,11.685-16.834,22.188-16.834c12.769,0,23.121,10.799,23.121,25.605"/>
		<path fill="#FFFFFF" d="M152.171,146.944c-4.237,0-7.671,3.776-7.671,8.434c0,4.658,3.434,14.46,7.671,14.46
			c4.236,0,7.671-9.802,7.671-14.46C159.842,150.72,156.407,146.944,152.171,146.944z M184.502,175.26H119.84V141.52h64.662V175.26z
			"/>
	</g>
	<g>
		<path fill="none" stroke="#FFFFFF" stroke-width="8" stroke-miterlimit="10" d="M130.367,134.059
			c2.816-11.122,11.685-16.834,22.188-16.834c12.769,0,23.121,10.799,23.121,25.605"/>
		<path fill="#FFFFFF" d="M153.181,147.954c-4.237,0-7.671,3.776-7.671,8.434c0,4.658,3.434,14.46,7.671,14.46
			c4.236,0,7.671-9.802,7.671-14.46C160.852,151.73,157.417,147.954,153.181,147.954z M185.512,176.269H120.85V142.53h64.662
			V176.269z"/>
	</g>
	<g>
		<path fill="none" stroke="#FFFFFF" stroke-width="8" stroke-miterlimit="10" d="M131.377,135.069
			c2.816-11.122,11.685-16.833,22.188-16.833c12.77,0,23.121,10.798,23.121,25.605"/>
		<path fill="#FFFFFF" d="M154.191,148.964c-4.237,0-7.67,3.776-7.67,8.434c0,4.658,3.433,14.46,7.67,14.46
			c4.236,0,7.671-9.802,7.671-14.46C161.862,152.74,158.427,148.964,154.191,148.964z M186.522,177.279H121.86V143.54h64.662
			V177.279z"/>
	</g>
	<g>
		<path fill="none" stroke="#FFFFFF" stroke-width="8" stroke-miterlimit="10" d="M132.387,136.08
			c2.817-11.123,11.685-16.835,22.188-16.835c12.77,0,23.121,10.799,23.121,25.605"/>
		<path fill="#FFFFFF" d="M155.201,149.974c-4.238,0-7.671,3.776-7.671,8.434s3.433,14.459,7.671,14.459
			c4.235,0,7.67-9.802,7.67-14.459S159.437,149.974,155.201,149.974z M187.531,178.289h-64.662v-33.738h64.662V178.289z"/>
	</g>
	<g>
		<path fill="none" stroke="#FFFFFF" stroke-width="8" stroke-miterlimit="10" d="M133.397,137.09
			c2.817-11.123,11.685-16.834,22.188-16.834c12.77,0,23.122,10.799,23.122,25.604"/>
		<path fill="#FFFFFF" d="M156.21,150.984c-4.237,0-7.67,3.776-7.67,8.434s3.433,14.46,7.67,14.46s7.672-9.803,7.672-14.46
			S160.448,150.984,156.21,150.984z M188.542,179.299h-64.663V145.56h64.663V179.299z"/>
	</g>
	<g>
		<path fill="none" stroke="#FFFFFF" stroke-width="8" stroke-miterlimit="10" d="M134.407,138.099
			c2.816-11.122,11.685-16.834,22.188-16.834c12.769,0,23.121,10.799,23.121,25.605"/>
		<path fill="#FFFFFF" d="M157.221,151.994c-4.237,0-7.671,3.776-7.671,8.434c0,4.658,3.434,14.46,7.671,14.46
			c4.236,0,7.671-9.802,7.671-14.46C164.892,155.77,161.457,151.994,157.221,151.994z M189.552,180.309h-64.663V146.57h64.663
			V180.309z"/>
	</g>
	<g>
		<path fill="none" stroke="#FFFFFF" stroke-width="8" stroke-miterlimit="10" d="M135.417,139.109
			c2.816-11.122,11.684-16.834,22.188-16.834c12.768,0,23.121,10.799,23.121,25.605"/>
		<path fill="#FFFFFF" d="M158.231,153.004c-4.237,0-7.671,3.776-7.671,8.434s3.434,14.46,7.671,14.46
			c4.236,0,7.671-9.803,7.671-14.46S162.467,153.004,158.231,153.004z M190.562,181.319H125.9V147.58h64.662V181.319z"/>
	</g>
	<g>
		<path fill="none" stroke="#FFFFFF" stroke-width="8" stroke-miterlimit="10" d="M136.427,140.119
			c2.816-11.122,11.685-16.834,22.188-16.834c12.769,0,23.121,10.799,23.121,25.605"/>
		<path fill="#FFFFFF" d="M159.24,154.013c-4.237,0-7.671,3.776-7.671,8.434c0,4.658,3.434,14.46,7.671,14.46
			c4.236,0,7.671-9.802,7.671-14.46C166.911,157.79,163.477,154.013,159.24,154.013z M191.572,182.329h-64.662V148.59h64.662
			V182.329z"/>
	</g>
</g>
</svg>
